<svg width="32" height="32" viewBox="0 0 32 32" fill="none" xmlns="http://www.w3.org/2000/svg">
<rect width="32" height="32" rx="16" fill="#96BEDC"/>
<g clip-path="url(#clip0_238_12459)">
<path d="M15.8084 3.93164L26.3657 9.96593V22.0345L20.8013 25.6174L15.9989 28.4459H14.0941L4.67969 23.1659L5.25113 9.96593L15.8084 3.93164Z" fill="#2D374B"/>
<path d="M26.1187 19.7465L26.1214 21.4096C26.1157 21.5232 26.086 21.6343 26.034 21.7357C25.982 21.8372 25.9091 21.9267 25.8198 21.9983L23.9765 23.0552L18.8809 14.8966L20.8403 11.6074L26.1187 19.7465Z" fill="#28A0F0"/>
<path d="M19.6295 25.5496L15.9512 19.8344L18.1968 16.0625L23.0273 23.6001L19.6295 25.5496Z" fill="#28A0F0"/>
<path d="M4.00195 22.781L6.60277 24.2646L15.2608 10.5188L13.7914 10.4811C12.5395 10.4636 11.1908 10.7857 10.5718 11.7862L5.65526 19.3304L4.00195 21.8463V22.781Z" fill="white"/>
<path d="M16.3848 10.5315L20.2573 10.5176L10.6855 26.591L7.62305 24.8453L16.3848 10.5315Z" fill="white"/>
<path d="M27.7519 10.4992C27.7341 10.1036 27.6195 9.71812 27.4178 9.37609C27.216 9.03409 26.9333 8.74577 26.594 8.53604L16.9664 3.05493C16.6227 2.88773 16.2449 2.80078 15.862 2.80078C15.479 2.80078 15.1012 2.88773 14.7575 3.05493C14.6771 3.095 5.39485 8.42467 5.39485 8.42467C5.26589 8.48595 5.14254 8.55822 5.02619 8.64066C4.72478 8.85284 4.47587 9.12989 4.29814 9.45095C4.1204 9.77205 4.01847 10.1288 4 10.4945V21.8462L5.6533 19.3302L5.64057 10.5719C5.6483 10.4518 5.68284 10.3349 5.7417 10.2296C5.80055 10.1243 5.88225 10.0333 5.98092 9.96304C6.02463 9.932 15.4654 4.522 15.4954 4.50714C15.6084 4.45268 15.7324 4.42409 15.8581 4.42351C15.9838 4.42292 16.108 4.45035 16.2215 4.50376L25.7246 9.91544C25.8352 9.98502 25.9274 10.0799 25.9932 10.1922C26.059 10.3044 26.0966 10.4307 26.1027 10.5604V21.4105C26.1005 21.523 26.0739 21.6336 26.025 21.7352C25.9759 21.8367 25.9056 21.9267 25.8187 21.9991L23.9753 23.0561L23.0251 23.6017L19.6273 25.5511L16.1814 27.5282C15.9909 27.5947 15.7825 27.5907 15.5948 27.5167L11.518 25.1953L10.6852 26.5936L14.3491 28.6818C14.4704 28.75 14.5783 28.8105 14.6669 28.8598C14.804 28.9351 14.8976 28.9868 14.9304 29.0026C15.237 29.1356 15.5683 29.2031 15.903 29.2007C16.2099 29.2012 16.5142 29.1445 16.8 29.0336L26.8085 23.2956C27.0909 23.0781 27.3217 22.802 27.4846 22.4867C27.6475 22.1714 27.7386 21.8246 27.7515 21.4706L27.7519 10.4992Z" fill="#96BEDC"/>
</g>
<defs>
<clipPath id="clip0_238_12459">
<rect width="24" height="26.4" fill="white" transform="translate(4 2.80078)"/>
</clipPath>
</defs>
</svg>
